<?xml version="1.0" standalone="no"?>
<!DOCTYPE svg PUBLIC "-//W3C//DTD SVG 20010904//EN"
 "http://www.w3.org/TR/2001/REC-SVG-20010904/DTD/svg10.dtd">
<svg version="1.0" xmlns="http://www.w3.org/2000/svg"
 width="1080.000000pt" height="1080.000000pt" viewBox="0 0 1080.000000 1080.000000"
 preserveAspectRatio="xMidYMid meet">
<metadata>
Created by potrace 1.14, written by Peter Selinger 2001-2017
</metadata>
<g transform="translate(0.000000,1080.000000) scale(0.100000,-0.100000)"
fill="#000000" stroke="none">
<path d="M720 10798 c0 -2 9 -32 20 -66 11 -35 20 -75 20 -88 0 -13 9 -52 19
-86 10 -35 27 -103 36 -153 9 -49 32 -137 51 -195 18 -58 40 -125 48 -150 34
-111 119 -294 162 -350 25 -33 48 -60 52 -60 4 0 25 -16 47 -35 22 -20 48 -38
58 -41 9 -3 17 -13 17 -23 0 -10 8 -29 18 -42 25 -32 72 -133 72 -156 1 -30
45 -70 99 -89 54 -20 76 -50 69 -96 -2 -19 -8 -23 -32 -21 -17 1 -34 9 -38 18
-5 8 -17 15 -26 15 -9 0 -28 9 -42 20 -14 11 -31 20 -38 20 -19 0 -32 -44 -32
-111 0 -54 -4 -65 -34 -102 -31 -39 -44 -76 -65 -182 -10 -54 -34 -107 -70
-158 -17 -23 -33 -54 -36 -68 -5 -22 -3 -26 16 -25 19 1 24 -6 32 -42 10 -49
-7 -78 -46 -84 -14 -2 -24 -12 -27 -28 -6 -32 -39 -70 -60 -70 -9 0 -23 -15
-32 -33 -9 -18 -31 -43 -50 -56 -19 -13 -39 -33 -44 -45 -6 -14 -18 -21 -38
-21 -20 0 -31 -6 -37 -20 l-8 -20 -1 20 c-1 11 -7 0 -14 -25 -10 -38 -16 -46
-39 -48 -28 -3 -45 -37 -34 -66 3 -8 1 -17 -6 -20 -9 -3 -9 -7 0 -13 13 -9 5
-49 -18 -95 -5 -10 -9 -29 -9 -43 0 -18 -5 -25 -19 -25 -14 0 -18 -5 -14 -20
3 -11 3 -27 -1 -36 -5 -14 -7 -14 -22 1 -22 21 -49 15 -49 -12 0 -12 -4 -25
-8 -29 -4 -4 -7 -18 -7 -31 0 -16 -6 -23 -19 -23 -12 0 -18 -7 -17 -17 1 -12
-7 -19 -25 -21 -30 -4 -39 -23 -39 -89 0 -24 -4 -43 -8 -43 -18 0 -46 -78 -48
-135 -3 -47 -8 -64 -25 -78 -31 -25 -104 -226 -94 -258 4 -10 -1 -31 -9 -46
-8 -16 -16 -42 -19 -58 -5 -29 -11 -50 -27 -90 -43 -111 -50 -153 -50 -285 -1
-187 -16 -372 -36 -417 -24 -56 -27 -166 -6 -240 9 -35 20 -63 24 -63 4 0 -9
-28 -30 -62 -46 -75 -54 -111 -38 -158 10 -29 10 -42 -2 -73 -16 -42 -9 -112
10 -101 8 5 9 1 4 -12 -5 -10 -10 -29 -11 -41 -2 -12 -6 -27 -10 -32 -3 -6 -1
-11 6 -11 8 0 10 -16 6 -55 -3 -33 0 -75 9 -107 17 -64 19 -158 3 -158 -7 0
-9 -13 -5 -38 6 -33 4 -38 -20 -49 -21 -10 -31 -10 -42 -1 -11 10 -17 8 -28
-7 -17 -23 -17 -27 0 -50 10 -14 17 -17 27 -9 8 6 31 11 51 13 44 2 45 -2 22
-78 -15 -52 -16 -53 -48 -47 -18 4 -41 4 -50 0 -15 -6 -16 -193 -16 -2390 l0
-2384 1850 0 1851 0 -3 48 c-2 33 -10 54 -26 70 -26 26 -23 49 9 94 10 15 19
32 19 38 0 13 37 13 45 0 13 -20 63 -10 94 19 27 25 31 36 31 80 0 39 -4 51
-15 51 -11 0 -15 12 -15 44 0 33 -9 58 -31 95 -18 28 -36 51 -40 51 -42 0 -87
-59 -75 -98 7 -20 -11 -72 -24 -72 -16 0 -38 38 -43 75 -13 82 -71 122 -131
90 l-34 -18 -33 26 c-19 15 -39 31 -45 36 -6 5 -33 13 -60 16 -40 6 -57 16
-92 51 -24 24 -48 44 -53 44 -5 0 -9 8 -9 19 0 10 -16 38 -35 62 -40 51 -45
91 -15 129 11 14 20 30 20 36 0 13 44 52 75 66 15 6 29 26 36 47 6 20 21 47
33 61 50 59 66 90 66 132 0 24 8 61 18 82 l18 39 15 -24 c9 -13 19 -51 22 -83
11 -105 70 -127 108 -40 11 24 24 46 29 49 9 6 41 102 45 135 5 42 27 99 40
104 23 8 35 -25 34 -100 0 -70 1 -82 15 -121 10 -31 40 -29 61 3 15 24 22 26
59 21 44 -6 90 2 146 26 33 14 39 14 83 -5 45 -20 48 -20 84 -3 32 15 41 16
68 5 32 -14 221 -32 343 -33 59 -1 72 -4 72 -17 0 -25 57 -77 105 -96 33 -12
58 -15 99 -10 75 10 83 23 46 75 -17 22 -35 42 -40 42 -40 5 -68 27 -96 75
-22 38 -26 53 -21 97 3 29 8 63 11 77 3 14 1 27 -7 32 -19 12 -55 9 -64 -6
-11 -19 -47 -36 -76 -36 -47 0 -59 29 -66 157 -7 131 1 121 -83 107 -39 -6
-52 6 -59 55 -4 25 -3 26 74 62 59 28 67 52 67 201 0 86 3 110 17 123 30 30
43 -5 43 -114 0 -93 13 -153 37 -183 9 -11 34 -13 103 -12 92 3 101 6 126 49
9 16 22 20 59 18 25 -1 54 -5 63 -9 9 -4 40 -9 67 -11 28 -2 86 -13 129 -23
109 -27 147 -26 176 5 42 45 72 30 84 -40 4 -22 14 -50 22 -62 30 -48 94 -14
94 49 0 20 5 28 18 28 20 0 74 -54 65 -64 -4 -3 0 -7 8 -7 82 -7 115 -6 127 3
9 8 16 8 20 2 7 -11 67 -37 92 -41 8 -1 20 3 27 9 10 8 15 4 21 -13 10 -26 25
-29 150 -30 87 0 94 -2 118 -27 14 -15 30 -37 35 -49 4 -13 15 -23 24 -23 8 0
15 -4 15 -9 0 -5 15 -11 32 -15 18 -4 50 -18 70 -31 21 -14 46 -25 55 -25 10
-1 34 -14 53 -30 56 -48 99 -35 84 26 -5 19 -17 27 -49 36 -25 7 -45 19 -51
32 -8 18 -23 28 -84 56 -8 4 -18 20 -22 37 -5 21 -18 35 -38 43 -17 7 -34 18
-38 24 -4 6 -19 18 -34 26 -23 13 -98 111 -98 129 0 3 -12 19 -26 34 -29 32
-27 72 5 82 11 3 22 13 25 21 7 18 70 46 89 38 7 -2 74 -6 148 -7 117 -2 139
-5 163 -22 44 -30 45 -31 134 -60 82 -26 83 -26 120 -8 31 15 37 23 38 53 1
46 24 93 49 100 13 3 21 15 22 34 3 37 30 57 69 51 22 -4 38 1 57 15 14 11 30
20 36 20 5 0 16 12 23 27 8 16 28 31 53 40 34 12 45 11 77 -1 31 -13 50 -14
118 -4 69 11 87 17 118 46 34 30 41 32 82 27 25 -3 125 -8 222 -11 l177 -6 12
25 c15 34 75 62 177 83 45 9 82 21 82 25 0 4 -9 17 -19 30 -17 21 -29 24 -109
27 -84 4 -91 2 -106 -19 -14 -21 -25 -23 -109 -27 l-94 -4 -22 31 c-12 17 -27
31 -32 31 -5 0 -40 -20 -78 -45 -38 -25 -74 -45 -81 -45 -7 0 -21 11 -31 24
-31 39 -53 40 -116 8 -32 -16 -69 -33 -83 -37 -13 -4 -30 -14 -37 -21 -8 -7
-30 -18 -50 -23 -30 -9 -42 -7 -63 7 -19 13 -45 17 -107 16 -91 -1 -147 -19
-198 -66 -38 -36 -53 -35 -85 3 -23 28 -32 32 -95 36 -97 6 -116 5 -130 -7 -7
-6 -27 -13 -45 -15 -17 -2 -38 -12 -45 -22 -13 -17 -16 -17 -69 10 -59 28 -89
33 -128 18 -19 -7 -101 -1 -168 13 -36 8 -52 21 -72 60 -26 52 -90 116 -116
116 -29 0 -53 -11 -47 -20 3 -5 1 -11 -5 -15 -5 -3 -10 -15 -10 -26 0 -10 -2
-19 -5 -19 -15 0 -85 42 -92 54 -5 8 -46 40 -93 71 -83 55 -86 56 -135 49
-101 -14 -138 -10 -175 16 -19 14 -48 32 -65 40 -44 22 -63 82 -48 152 12 57
4 78 -28 78 -10 0 -34 16 -53 36 -20 20 -41 34 -49 31 -32 -12 -22 -184 11
-195 7 -2 12 -10 12 -18 0 -8 4 -14 9 -14 10 0 22 -52 21 -95 0 -16 -12 -53
-26 -82 -26 -52 -26 -52 -71 -51 -32 0 -48 6 -56 19 -7 11 -17 19 -24 19 -7 0
-13 5 -13 10 0 6 -4 10 -10 10 -21 0 -86 77 -103 122 -15 39 -16 50 -5 70 24
42 41 58 63 58 20 0 24 7 29 54 4 30 4 82 0 116 -6 51 -12 68 -37 91 -16 16
-34 29 -39 29 -24 0 -77 33 -81 52 -8 30 -39 18 -59 -22 -76 -161 -78 -168
-78 -232 0 -34 5 -92 11 -128 5 -36 12 -83 14 -104 5 -40 28 -86 44 -86 5 0 7
-9 4 -20 -5 -20 -23 -28 -23 -10 0 6 -8 10 -18 10 -10 0 -22 4 -28 10 -28 28
-92 -39 -113 -118 -12 -41 -31 -49 -31 -12 0 10 -15 49 -34 86 -19 38 -37 77
-40 86 -9 29 -22 21 -34 -20 -7 -22 -27 -59 -45 -83 -18 -24 -39 -59 -46 -76
-18 -43 -41 -43 -42 0 0 60 -11 122 -26 154 -8 18 -12 37 -8 42 9 15 35 119
35 140 0 10 11 35 25 55 14 20 25 43 25 51 0 8 4 15 10 15 5 0 15 19 21 42 7
24 18 50 25 58 27 32 56 129 64 210 6 63 16 101 38 148 17 34 33 76 37 92 4
16 11 32 16 35 5 4 9 18 9 33 l0 26 -35 -34 c-19 -19 -35 -41 -35 -48 0 -8
-16 -32 -35 -55 -19 -22 -39 -56 -44 -74 -5 -18 -19 -45 -30 -59 -12 -15 -21
-32 -21 -38 0 -13 -23 -45 -61 -84 -38 -40 -62 -121 -55 -190 3 -31 5 -64 5
-72 0 -8 0 -34 0 -57 1 -45 -31 -108 -61 -118 -9 -3 -20 -15 -23 -25 -3 -11
-17 -20 -33 -22 -16 -2 -31 -12 -38 -26 -6 -12 -22 -34 -35 -48 -13 -14 -42
-58 -64 -97 -23 -40 -45 -71 -50 -70 -13 3 -26 100 -19 141 l5 33 -40 -21
c-23 -11 -52 -37 -65 -58 -14 -20 -37 -48 -52 -62 l-27 -25 6 57 c7 52 5 59
-18 83 -21 20 -36 25 -76 25 -28 0 -58 4 -68 10 -10 5 -45 10 -77 11 -36 1
-66 7 -76 16 -11 10 -27 13 -42 9 -32 -8 -83 -51 -101 -85 -7 -15 -30 -38 -49
-52 -20 -13 -41 -36 -47 -52 -6 -15 -23 -33 -38 -40 -15 -7 -31 -26 -37 -47
-7 -20 -33 -67 -59 -105 -26 -39 -51 -79 -56 -90 -5 -11 -14 -28 -21 -37 -9
-13 -9 -22 0 -42 10 -22 18 -26 53 -26 27 0 61 -11 100 -32 66 -34 87 -66 89
-133 3 -62 1 -68 -15 -61 -9 3 -39 -3 -68 -14 -60 -23 -95 -25 -120 -6 -28 21
-175 21 -198 0 -11 -9 -19 -23 -19 -31 0 -8 -13 -28 -29 -43 -37 -37 -90 -111
-126 -175 -16 -27 -30 -52 -31 -54 -2 -1 -7 0 -13 4 -8 4 -7 15 3 33 7 15 16
62 19 105 5 65 3 77 -10 77 -8 0 -17 -9 -20 -20 -3 -11 -12 -20 -20 -20 -19 0
-73 29 -73 39 0 4 -14 22 -30 40 -33 34 -69 40 -94 16 -21 -21 -56 -19 -56 3
0 28 21 42 62 42 21 0 38 5 38 10 0 6 -4 10 -10 10 -18 0 -11 20 15 44 28 26
45 66 45 106 0 43 35 61 122 66 40 2 84 6 97 9 13 4 46 0 74 -7 l50 -12 36 40
c20 22 48 48 62 56 14 9 34 31 43 50 23 45 102 146 201 258 85 96 125 155 130
194 1 11 4 28 6 36 3 10 -8 16 -38 20 -40 6 -71 20 -44 20 7 0 -1 16 -17 34
-20 23 -29 42 -25 55 9 37 -5 71 -30 71 -33 0 -100 -37 -109 -60 -7 -19 -27
-28 -29 -12 -6 30 -10 71 -10 96 0 27 -2 28 -37 24 -52 -7 -132 -28 -167 -45
-75 -35 -141 -75 -165 -98 -14 -14 -30 -25 -35 -25 -5 0 -17 -7 -27 -17 -15
-13 -18 -14 -18 -1 0 8 33 41 74 74 41 32 77 69 80 81 3 12 20 31 36 43 39 28
38 36 -5 44 -19 4 -35 10 -35 15 0 4 -6 8 -12 8 -7 0 -30 7 -50 16 -27 11 -36
20 -32 31 3 9 1 16 -5 16 -6 0 -11 -7 -11 -15 0 -24 -19 -17 -26 10 -4 17 -13
25 -29 25 -12 0 -34 9 -48 20 -20 16 -26 29 -25 60 0 24 6 41 15 44 8 3 11 10
8 16 -4 6 10 10 34 10 22 0 51 5 65 11 28 13 81 -2 90 -26 3 -8 19 -21 36 -30
17 -9 52 -32 78 -52 40 -30 52 -34 87 -30 91 12 157 27 183 40 15 8 57 26 94
40 77 29 183 102 192 132 3 12 25 30 51 43 25 12 45 26 45 31 0 5 10 13 23 16
31 10 87 48 87 60 0 6 18 21 40 35 81 50 71 124 -20 160 -34 13 -45 24 -54 51
-9 28 -16 34 -36 31 -14 -1 -90 -6 -170 -11 -80 -5 -170 -15 -200 -21 -207
-44 -232 -48 -460 -60 -80 -5 -164 -14 -187 -21 -39 -12 -44 -11 -57 6 -12 16
-31 20 -122 25 -60 3 -116 10 -124 15 -8 5 -58 13 -110 17 -162 12 -203 19
-250 40 -25 11 -64 29 -87 39 -24 10 -43 20 -43 23 0 4 52 8 111 8 20 0 49 -8
64 -18 25 -16 56 -18 304 -19 152 -1 286 -5 298 -9 28 -9 115 33 162 78 97 94
118 113 127 117 13 6 44 64 44 83 0 16 -11 20 -38 17 -8 -2 -31 9 -53 23 -21
14 -45 26 -53 26 -13 0 -52 48 -44 55 2 1 14 8 26 15 18 9 23 18 19 36 -5 26
2 31 21 12 9 -9 12 -8 12 4 0 9 -10 18 -22 20 -12 2 -23 8 -25 15 -6 16 79 19
351 12 127 -3 253 -2 279 2 27 5 140 16 250 24 187 15 204 18 226 39 40 41 48
148 12 171 -6 3 -11 13 -11 22 0 8 -12 24 -26 36 l-26 20 27 15 c26 13 27 16
23 80 -5 78 3 102 42 125 26 16 32 16 106 -5 44 -12 93 -20 109 -19 17 1 89 4
162 6 122 4 135 7 177 32 25 16 46 34 46 41 0 14 20 17 20 3 0 -5 27 4 59 19
58 28 59 29 63 77 6 66 -7 76 -97 67 -38 -3 -104 -14 -146 -24 -122 -30 -231
-42 -279 -31 -26 6 -53 6 -73 -1 -58 -18 -98 -17 -133 3 -19 10 -42 19 -51 19
-8 0 -33 16 -54 35 -22 19 -45 35 -53 35 -8 0 -24 12 -36 27 -32 41 -71 63
-110 63 -24 0 -46 9 -70 30 -19 16 -66 54 -104 85 l-69 55 -116 0 c-130 0
-455 -25 -472 -36 -7 -4 -37 -12 -68 -18 -50 -10 -56 -14 -57 -36 -3 -107 -5
-121 -14 -115 -5 3 -10 2 -10 -4 0 -6 -59 -8 -157 -5 -137 3 -161 6 -184 23
-14 11 -55 25 -90 32 -72 13 -105 26 -131 52 -10 9 -26 17 -35 17 -10 0 -30
13 -46 29 -15 15 -48 39 -73 52 -41 20 -45 26 -39 48 8 29 7 137 -1 164 -3 9
-19 24 -35 32 -16 9 -29 21 -29 29 0 35 90 70 155 59 53 -9 129 15 186 58 39
29 62 39 88 39 55 -1 113 -17 123 -34 5 -9 13 -16 19 -16 5 0 22 -11 36 -24
14 -13 37 -30 52 -37 14 -7 40 -23 56 -34 36 -26 88 -45 124 -46 42 0 96 -23
96 -39 0 -8 8 -14 17 -12 9 1 19 -2 23 -8 10 -16 25 -12 19 5 -4 8 -1 15 5 15
8 0 7 6 -1 20 -24 38 -1 44 195 48 175 4 185 3 228 -18 24 -13 57 -33 72 -46
16 -13 35 -24 42 -24 7 0 15 -5 17 -12 3 -8 35 -13 97 -13 89 -2 95 -3 181
-48 49 -26 100 -47 114 -47 24 0 76 -18 86 -30 8 -10 95 -50 108 -50 7 0 12
-4 12 -10 0 -5 6 -10 14 -10 15 0 26 -30 26 -70 0 -14 9 -31 19 -37 11 -7 21
-23 23 -35 3 -21 9 -23 65 -26 54 -3 63 0 73 18 6 12 30 29 53 39 23 10 48 30
56 45 8 14 18 26 23 26 4 0 8 10 8 22 0 29 -44 84 -74 92 -25 6 -30 15 -40 77
-9 49 6 60 66 48 26 -4 89 -8 140 -7 57 0 105 -4 123 -12 17 -8 38 -14 47 -15
19 -2 57 -43 58 -62 0 -22 34 -53 57 -53 31 0 29 -24 -3 -39 l-26 -12 38 -26
c22 -14 51 -30 66 -35 20 -7 28 -17 28 -33 0 -13 -5 -27 -11 -30 -5 -4 -8 -12
-6 -18 2 -7 -5 -16 -16 -22 -30 -15 -32 -34 -4 -44 14 -6 28 -19 32 -30 3 -12
11 -21 16 -21 5 0 9 -6 9 -14 0 -7 10 -20 22 -28 17 -12 22 -27 26 -76 4 -57
3 -62 -19 -71 -13 -5 -37 -23 -53 -39 -29 -32 -31 -49 -10 -119 5 -19 0 -26
-27 -40 -46 -24 -129 -111 -123 -127 11 -27 152 26 160 60 7 26 16 29 167 48
78 11 114 20 133 35 32 25 71 27 104 4 17 -12 43 -16 97 -15 53 1 88 -4 124
-18 63 -25 139 -26 168 -3 l22 18 -45 48 c-39 43 -48 48 -74 43 -39 -9 -60 14
-39 44 12 18 16 19 27 5 18 -22 82 -19 108 5 12 11 27 20 34 20 7 0 24 9 37
19 17 13 20 20 11 26 -18 11 -123 41 -137 39 -7 -1 -17 -2 -23 -3 -5 0 -21
-19 -35 -41 -20 -32 -31 -40 -54 -40 -17 0 -31 -6 -35 -16 -7 -19 -52 -12 -76
12 -12 12 -11 17 7 41 11 16 27 29 36 31 9 2 32 19 51 38 22 22 44 34 61 34
14 0 41 11 58 24 20 14 52 26 84 29 29 3 67 14 85 23 18 10 57 21 86 25 36 5
58 14 70 29 21 26 110 39 116 17 34 -114 82 -253 87 -255 33 -14 49 -43 48
-83 -3 -77 9 -107 49 -129 21 -10 64 -44 97 -75 33 -30 63 -55 67 -55 8 0 246
-241 260 -263 4 -6 8 -21 8 -31 0 -31 50 -127 100 -191 63 -81 110 -172 110
-211 0 -65 -86 -124 -182 -124 -21 0 -83 18 -140 41 -84 33 -110 39 -143 34
-46 -6 -154 17 -166 37 -5 7 -35 13 -76 14 -37 1 -84 6 -103 11 -19 5 -50 8
-68 6 -27 -2 -35 1 -39 17 -5 19 -33 29 -33 11 0 -10 -67 -3 -92 10 -20 11
-68 12 -68 1 0 -4 -18 -15 -39 -24 -33 -15 -40 -23 -43 -50 -4 -44 -31 -49
-48 -8 -7 16 -14 30 -16 30 -2 0 -19 -16 -37 -37 -36 -39 -57 -38 -57 2 0 26
-19 75 -29 74 -3 0 -22 -20 -42 -44 -25 -30 -39 -58 -44 -90 -8 -57 1 -69 52
-67 21 1 55 1 75 1 27 0 41 6 50 21 7 11 21 20 30 20 10 0 18 5 18 10 0 26 74
2 98 -32 18 -25 34 -23 95 12 40 22 66 30 103 30 50 0 78 -10 72 -26 -1 -5 9
-10 25 -12 19 -2 27 1 27 12 0 20 12 26 38 20 25 -7 18 -34 -9 -34 -10 0 -19
-3 -19 -6 0 -15 62 -65 74 -61 29 11 106 19 106 11 0 -5 35 -8 78 -6 76 3 77
2 117 -33 31 -28 46 -35 67 -31 30 6 131 -32 187 -70 20 -13 40 -24 45 -24 5
0 30 -13 55 -29 44 -28 64 -33 276 -70 22 -4 54 -15 72 -24 18 -9 39 -17 48
-17 8 0 15 -4 15 -10 0 -5 9 -10 20 -10 11 0 35 -9 54 -19 l35 -20 3 32 c5 49
-13 96 -44 120 -79 60 -234 211 -250 244 -20 41 -23 85 -8 114 6 11 48 43 93
72 86 56 188 151 247 232 19 26 63 76 97 112 47 50 66 63 81 59 21 -7 27 -2
74 56 15 18 43 53 63 77 88 108 108 182 55 208 -30 15 -38 38 -39 120 -1 67
-25 143 -46 143 -6 0 -22 9 -35 20 -13 11 -31 20 -40 20 -10 0 -23 7 -30 15
-17 21 -66 19 -89 -4 -24 -24 -41 -82 -41 -142 0 -61 -16 -73 -115 -87 -95
-14 -149 -15 -173 -3 -9 4 -31 15 -48 24 -17 9 -65 19 -105 23 -41 3 -84 10
-96 16 -37 18 -50 79 -42 193 6 81 5 103 -7 116 -23 25 -17 37 46 100 41 40
60 67 60 83 0 13 7 37 15 53 36 68 47 104 41 128 -4 14 -10 23 -15 21 -15 -9
-33 22 -42 71 -5 26 -13 51 -19 57 -13 13 -144 8 -217 -9 -34 -8 -69 -12 -78
-9 -8 3 -28 -5 -45 -20 -24 -20 -39 -25 -71 -22 -22 2 -48 11 -59 21 -19 17
-19 19 -2 34 10 9 19 28 20 44 2 35 -22 36 -85 3 l-45 -25 38 -10 c39 -10 39
-11 36 -55 -3 -34 -8 -45 -24 -49 -12 -4 -17 -10 -13 -17 5 -8 -1 -11 -16 -9
-13 2 -29 0 -36 -4 -10 -6 -32 1 -63 21 -2 2 2 7 9 11 19 12 6 28 -29 36 -17
4 -40 20 -52 36 -12 16 -29 31 -39 34 -25 8 -31 29 -40 135 -9 115 -24 184
-44 213 -8 12 -15 39 -15 60 0 69 -73 192 -181 304 -59 62 -73 96 -44 107 8 3
15 12 15 21 0 8 9 15 19 15 30 0 60 51 65 109 2 29 7 55 10 58 9 10 7 59 -4
87 -6 16 -6 35 0 51 5 13 10 65 11 115 1 64 5 93 15 98 8 4 15 28 17 52 4 40
8 47 38 61 38 19 49 47 37 99 -8 36 -2 341 8 373 9 30 -6 97 -22 97 -11 0 -9
6 6 23 17 17 21 30 17 61 -7 49 -38 75 -88 76 -24 0 -43 7 -58 24 -22 23 -22
25 -7 76 9 29 14 56 11 60 -2 4 2 16 10 26 8 10 15 27 15 37 0 9 4 17 9 17 5
0 11 8 15 18 15 46 84 117 120 124 12 3 33 1 46 -4 21 -8 22 -12 14 -51 -11
-57 -9 -134 4 -182 6 -22 12 -72 13 -112 1 -41 6 -76 13 -81 6 -5 28 -12 49
-16 26 -5 37 -12 37 -24 0 -22 34 -52 59 -52 11 0 22 -6 24 -12 4 -10 6 -10 6
0 1 7 16 12 39 12 45 0 87 -32 76 -59 -21 -51 -19 -76 13 -140 26 -53 31 -73
26 -107 -6 -48 8 -81 43 -94 28 -11 29 -23 10 -128 -12 -69 -11 -76 10 -128
35 -88 37 -99 11 -131 -12 -15 -29 -40 -36 -55 -8 -15 -26 -42 -41 -60 l-28
-33 -163 0 -164 -1 -48 -33 c-57 -39 -63 -51 -49 -98 9 -28 8 -40 -4 -58 -16
-24 -10 -35 18 -35 18 0 22 8 18 48 -1 12 2 22 7 22 18 0 31 -17 58 -72 22
-45 33 -58 51 -58 15 0 30 -12 46 -37 45 -72 67 -118 67 -146 1 -43 30 -96 62
-112 15 -8 31 -25 34 -37 10 -30 32 -55 66 -72 27 -13 27 -13 34 23 9 50 30
79 69 95 50 21 81 23 100 7 22 -18 172 -20 168 -2 -1 6 7 11 18 11 11 0 19 -6
18 -12 -2 -10 11 -12 47 -9 28 2 52 6 55 10 7 9 28 13 77 17 23 1 52 8 65 15
13 7 27 12 32 11 4 -2 28 7 52 19 39 19 43 23 37 47 -3 15 -10 29 -15 30 -12
5 -10 42 3 42 5 0 17 17 25 38 9 20 23 51 31 69 8 17 12 45 10 62 -3 17 -1 31
4 31 5 0 9 5 9 11 0 5 -4 7 -10 4 -5 -3 -7 0 -4 8 7 19 36 27 100 27 29 0 66
6 84 14 24 10 42 11 71 3 45 -11 50 -32 20 -87 -27 -52 -37 -164 -17 -196 14
-20 20 -22 36 -14 11 6 26 25 35 43 8 18 28 46 43 63 118 130 172 198 172 215
0 34 -59 107 -97 120 -38 12 -68 59 -58 90 4 11 26 41 50 66 76 79 74 71 75
429 1 244 5 334 16 385 14 61 42 109 64 109 20 0 33 47 32 115 -7 341 -17 396
-73 399 -20 1 -26 9 -36 51 -11 45 -11 54 9 94 11 24 33 55 48 68 15 13 30 38
34 54 3 19 14 33 30 39 13 5 27 14 31 19 14 24 55 10 100 -34 25 -25 46 -51
46 -58 1 -6 3 -68 3 -137 2 -117 4 -128 31 -179 26 -50 28 -57 17 -98 -7 -24
-9 -61 -6 -82 3 -22 7 -149 8 -283 1 -140 7 -275 15 -318 7 -41 14 -86 15
-100 2 -14 10 -70 19 -125 9 -55 18 -184 21 -287 4 -156 2 -187 -10 -192 -42
-16 -36 -100 10 -131 32 -23 114 -18 158 9 56 34 128 105 128 125 0 10 7 36
17 57 11 28 20 100 29 258 12 207 12 222 -6 266 -10 26 -30 64 -44 84 -28 41
-30 52 -47 200 -6 60 -18 114 -30 135 -10 20 -19 44 -19 54 0 10 -8 34 -19 55
-30 58 -30 156 -1 217 29 63 33 153 7 179 -10 10 -24 33 -32 52 -8 19 -28 42
-44 51 -23 14 -29 24 -29 48 1 35 32 92 65 118 13 10 23 24 23 31 0 7 9 21 20
31 18 16 20 26 14 71 -5 46 -4 54 15 66 12 7 21 20 21 28 0 9 7 26 16 38 14
20 14 22 0 22 -12 0 -16 10 -16 38 0 43 26 105 41 96 5 -3 7 -9 4 -14 -6 -10
33 -40 53 -40 8 0 23 -11 34 -25 11 -14 28 -25 39 -25 26 0 59 35 59 63 0 13
11 34 24 46 17 16 25 37 28 73 6 57 32 88 74 88 33 0 37 -13 20 -72 -26 -94
-36 -147 -36 -188 0 -30 -4 -40 -16 -40 -30 0 -8 -23 26 -27 19 -2 38 -10 43
-18 4 -8 25 -19 47 -25 33 -9 44 -8 67 7 16 10 32 23 36 30 4 7 27 26 51 42
40 28 44 34 44 73 1 25 -7 60 -19 82 -16 31 -18 45 -10 65 5 14 13 41 16 60
13 65 95 117 131 81 5 -5 52 -12 104 -16 116 -7 160 7 181 58 7 18 28 53 46
77 26 34 33 54 34 90 1 109 13 147 57 189 71 68 51 113 -40 92 -60 -14 -140
-41 -148 -49 -27 -31 -110 -52 -110 -30 0 22 146 159 169 159 11 0 21 4 21 9
0 9 129 71 151 71 8 0 25 9 39 20 14 11 29 20 35 20 5 0 23 13 40 29 16 16 65
47 108 70 42 22 99 58 125 78 26 21 70 49 97 62 80 39 128 67 265 156 199 130
236 153 260 165 14 7 39 25 57 39 17 14 46 36 65 49 18 13 42 29 53 37 17 12
-210 14 -1695 15 -1691 0 -1832 -3 -1624 -31 38 -5 123 -11 189 -13 165 -7
238 -18 320 -50 71 -28 307 -87 445 -111 41 -7 101 -22 132 -33 49 -18 81 -21
238 -21 113 0 195 -4 218 -12 55 -18 256 -4 296 20 41 25 186 32 234 12 48
-20 22 -32 -63 -29 -56 2 -80 -3 -117 -20 -25 -13 -64 -25 -85 -29 -21 -3 -71
-16 -112 -29 -40 -13 -84 -24 -98 -24 -13 0 -43 -4 -66 -9 -23 -6 -59 -13 -79
-16 -28 -4 -40 -12 -50 -35 -7 -17 -20 -31 -28 -31 -8 -1 -26 -3 -40 -5 -140
-17 -150 -17 -174 0 -14 9 -35 16 -46 16 -19 0 -67 -25 -80 -41 -3 -3 -29 -9
-58 -13 -70 -9 -103 -22 -109 -44 -4 -18 -55 -52 -79 -52 -8 0 -14 -8 -14 -19
0 -16 -11 -19 -82 -25 -93 -7 -135 1 -193 34 -32 18 -50 21 -97 18 -32 -2 -64
-10 -70 -16 -6 -6 -13 -31 -14 -54 -2 -24 -3 -46 -3 -50 -1 -4 -22 -30 -48
-57 -61 -63 -73 -78 -73 -90 0 -25 -110 -30 -130 -6 -7 8 -18 15 -25 15 -6 0
-20 9 -30 21 -16 16 -26 19 -60 13 -50 -8 -75 -20 -97 -48 l-17 -21 -30 35
c-17 19 -29 40 -27 46 2 6 0 30 -5 55 -5 24 -13 70 -18 101 -23 145 -31 168
-56 168 -13 0 -25 5 -27 11 -2 6 -16 13 -32 14 -15 2 -33 11 -40 21 -9 11 -31
18 -72 21 -32 2 -74 11 -93 20 -26 12 -42 13 -67 5 -21 -6 -61 -7 -108 -1 -41
4 -126 9 -188 10 -122 2 -155 -7 -160 -46 -3 -20 -3 -20 -23 3 -11 12 -27 22
-37 22 -10 0 -18 4 -18 9 0 10 -87 21 -107 14 -7 -3 -13 -11 -13 -19 0 -8 -9
-22 -20 -31 -11 -10 -20 -23 -20 -30 0 -7 -4 -13 -10 -13 -5 0 -10 -20 -10
-45 0 -33 -4 -45 -15 -45 -8 0 -15 7 -15 16 0 10 -6 14 -15 10 -9 -3 -15 0
-15 10 0 8 -4 13 -9 10 -4 -3 -16 3 -26 14 -16 18 -19 18 -41 3 -13 -8 -24
-22 -24 -29 0 -9 -11 -14 -30 -14 -16 0 -30 4 -30 8 0 15 -46 31 -61 21 -8 -5
-33 -9 -56 -9 -24 0 -43 -4 -43 -10 0 -5 -11 -10 -25 -10 -18 0 -25 5 -25 20
0 15 7 20 25 20 14 0 25 5 25 10 0 6 7 10 16 10 8 0 12 5 8 11 -3 6 -15 8 -26
6 -21 -6 -58 27 -58 51 0 9 -6 12 -17 8 -11 -5 -27 5 -50 30 -22 25 -33 31
-33 20 0 -9 -4 -16 -10 -16 -5 0 -19 -17 -30 -37 -43 -80 -82 -122 -112 -123
-10 0 -26 -10 -37 -22 -12 -12 -40 -24 -68 -29 -55 -8 -143 7 -143 25 0 18
-65 36 -97 27 -29 -8 -44 -31 -20 -31 9 0 18 -6 20 -12 4 -10 8 -10 15 0 7 11
15 8 35 -12 14 -14 31 -26 37 -26 5 0 10 -7 10 -15 0 -9 9 -15 23 -14 16 1 18
2 5 6 -21 5 -24 23 -5 23 6 0 22 3 35 6 16 5 22 2 22 -10 0 -9 11 -21 24 -26
31 -11 41 -29 27 -43 -6 -6 -11 -25 -11 -43 0 -42 -39 -71 -72 -53 -19 10 -84
15 -235 17 -57 1 -79 15 -87 53 -6 29 -9 31 -39 26 -21 -3 -48 3 -82 19 -45
21 -47 22 -16 18 28 -4 31 -3 19 9 -12 12 -75 34 -210 73 -13 4 -18 16 -18 42
0 20 -6 44 -13 52 -19 24 -93 39 -136 28 -25 -7 -71 -7 -147 1 -60 6 -151 11
-202 11 -122 0 -156 -17 -196 -99 -18 -37 -36 -59 -45 -59 -9 1 -43 -2 -77 -6
-45 -6 -65 -4 -75 6 -22 20 -35 22 -144 26 -94 3 -102 5 -130 32 -30 27 -105
70 -124 70 -6 0 -41 14 -78 32 -59 28 -81 32 -162 35 -52 1 -109 7 -126 13
-18 6 -39 8 -47 5 -9 -4 -19 -1 -23 4 -3 6 -11 8 -17 5 -15 -10 -185 -37 -228
-38 -24 0 -55 13 -101 42 -36 23 -74 42 -83 42 -9 0 -39 11 -66 25 -27 14 -56
25 -64 25 -8 0 -21 6 -28 13 -30 27 -179 98 -215 101 -21 2 -47 7 -57 12 -14
5 -17 4 -12 -4 5 -8 0 -12 -13 -12 -12 0 -20 4 -18 9 3 14 -84 74 -94 64 -14
-14 33 -73 59 -73 12 0 22 -4 22 -10 0 -5 14 -16 30 -25 16 -9 30 -23 31 -33
0 -10 3 -12 6 -4 14 36 93 -8 107 -61 4 -19 13 -27 27 -27 18 0 19 -3 9 -15
-18 -22 -6 -40 44 -66 25 -12 46 -26 46 -31 0 -5 14 -14 30 -19 17 -6 30 -15
30 -20 0 -5 9 -9 19 -9 11 0 28 -10 38 -23 23 -29 92 -78 165 -117 52 -27 129
-83 263 -190 28 -22 54 -40 58 -40 11 0 85 -62 155 -130 31 -30 73 -62 93 -70
33 -14 109 -73 109 -85 0 -8 -39 -6 -58 4 -21 10 -76 27 -119 36 -17 3 -37 13
-44 21 -7 9 -30 14 -61 14 -57 0 -88 13 -88 39 0 23 -32 52 -95 86 -27 15 -64
38 -82 51 -17 13 -35 24 -39 24 -4 0 -15 6 -23 14 -28 25 -118 66 -144 66 -14
0 -28 4 -32 9 -3 5 -22 15 -43 21 -81 26 -106 42 -164 110 -22 24 -57 26 -96
3 -16 -9 -36 -13 -46 -10 -16 6 -16 9 3 36 18 25 20 33 9 56 -13 29 -74 65
-109 65 -27 0 -109 38 -109 51 0 5 -6 9 -13 9 -8 0 -24 11 -37 25 -13 14 -29
25 -36 25 -6 0 -19 16 -29 35 -12 26 -25 37 -46 42 -21 4 -31 13 -36 32 -6 26
-37 85 -55 108 -5 6 -38 25 -73 41 -35 17 -68 40 -75 51 -6 12 -29 32 -50 46
-39 25 -43 25 -245 25 -113 0 -205 -1 -205 -2z m5503 -513 c26 -11 47 -25 47
-32 0 -6 12 -20 27 -31 16 -11 24 -24 20 -29 -5 -4 -59 -8 -120 -8 l-112 0 -3
28 c-2 15 1 27 6 27 5 0 9 8 8 17 -1 16 60 57 74 50 3 -1 27 -11 53 -22z
m-591 -125 c16 0 8 -29 -13 -44 -18 -12 -21 -23 -19 -73 3 -86 2 -100 -16
-117 -17 -18 -39 -22 -29 -6 8 13 -14 80 -26 80 -5 0 -9 8 -9 18 0 13 -8 18
-27 17 -33 0 -42 29 -20 59 11 16 17 17 36 6 31 -16 66 12 50 41 -7 15 -6 19
6 19 8 0 20 9 27 20 l13 20 9 -20 c5 -11 13 -20 18 -20z m-3892 -7 c0 -14 -19
-38 -25 -32 -8 8 5 39 16 39 5 0 9 -3 9 -7z m2660 -14 c0 -11 -4 -17 -10 -14
-5 3 -10 13 -10 21 0 8 5 14 10 14 6 0 10 -9 10 -21z m-2785 -90 c16 -16 11
-49 -7 -49 -5 0 -28 -13 -51 -28 -23 -16 -56 -34 -74 -41 -28 -11 -35 -11 -48
3 -13 12 -21 13 -36 6 -11 -6 -23 -8 -28 -5 -5 3 -11 -1 -14 -7 -3 -10 -9 -9
-22 3 -24 23 -12 77 21 89 13 5 24 13 24 18 0 26 210 36 235 11z m342 -165
c37 -24 26 -53 -27 -73 -33 -12 -46 -23 -50 -41 -3 -14 -11 -41 -19 -62 -13
-33 -20 -38 -86 -57 -39 -12 -80 -28 -91 -35 -10 -7 -35 -16 -55 -20 -31 -5
-41 -2 -74 26 -50 43 -83 118 -52 118 7 0 32 19 56 41 57 55 115 85 182 93 30
4 66 13 79 21 30 17 104 11 137 -11z m91 -202 c7 -5 10 -16 7 -25 -7 -18 -32
-30 -46 -21 -13 8 -11 42 4 47 18 8 21 8 35 -1z m194 -76 c-4 -51 -3 -54 22
-60 14 -3 43 -3 65 0 21 3 41 2 44 -3 4 -6 11 -43 18 -84 6 -41 16 -85 22 -98
9 -19 9 -25 0 -28 -7 -3 -13 -13 -13 -24 0 -16 -4 -18 -18 -10 -12 6 -23 4
-40 -9 -24 -20 -29 -46 -9 -53 10 -4 10 -7 0 -18 -10 -10 -13 -10 -13 -1 0 21
-54 -13 -70 -43 -8 -15 -25 -31 -37 -36 -13 -5 -23 -17 -23 -28 0 -10 -6 -24
-14 -30 -8 -7 -17 -27 -20 -46 -4 -21 -17 -42 -35 -55 -26 -18 -44 -20 -184
-20 -144 0 -232 -10 -282 -31 -46 -19 -59 -15 -92 28 -38 50 -37 46 -19 86 8
18 16 40 19 49 7 21 68 48 111 48 17 1 56 9 86 20 30 11 67 19 82 20 33 0 100
38 95 54 -2 7 -29 11 -68 11 -46 0 -73 6 -96 19 -33 20 -35 36 -4 36 10 0 26
9 36 20 13 14 31 20 61 20 73 0 207 80 187 112 -6 11 -27 7 -127 -24 -71 -21
-128 -20 -180 3 -35 16 -33 33 9 59 19 12 35 26 35 31 0 6 32 8 78 6 47 -2 92
1 117 9 22 8 57 16 78 19 21 4 46 15 55 26 9 10 22 19 29 19 7 0 13 5 13 10 0
11 59 50 76 50 7 0 9 -19 6 -54z m6399 14 c22 -12 25 -45 5 -57 -7 -4 -21 -23
-30 -40 -21 -42 -56 -46 -56 -6 0 40 30 113 47 113 8 0 23 -5 34 -10z m-36
-200 c8 -25 -10 -50 -35 -50 -23 0 -29 18 -16 47 14 28 42 30 51 3z m-6225
-309 c0 -6 -4 -13 -10 -16 -5 -3 -10 1 -10 9 0 9 5 16 10 16 6 0 10 -4 10 -9z
m-53 -33 c-3 -8 -6 -5 -6 6 -1 11 2 17 5 13 3 -3 4 -12 1 -19z m6313 3 c0 -5
-7 -11 -15 -15 -8 -3 -15 -12 -15 -20 0 -18 -16 -30 -24 -17 -3 5 4 20 15 35
20 26 39 34 39 17z m-3736 -22 c18 -14 26 -30 26 -51 0 -16 -3 -28 -7 -26 -52
25 -64 35 -69 54 -6 24 1 44 15 44 5 0 20 -9 35 -21z m-2560 -30 c14 6 33 4
54 -5 23 -9 40 -10 58 -4 28 11 97 13 131 4 17 -5 22 -15 25 -55 2 -38 0 -49
-12 -50 -8 0 -55 -4 -105 -8 -66 -5 -103 -4 -138 6 -44 13 -48 17 -43 39 4 14
2 24 -4 24 -5 0 -10 11 -10 23 0 25 12 45 18 28 2 -6 12 -7 26 -2z m574 -54
c12 -3 22 -12 22 -20 0 -16 30 -35 57 -35 44 -1 91 -83 61 -107 -7 -6 -47 -14
-88 -18 -107 -10 -112 -12 -130 -34 -16 -22 -68 -37 -85 -24 -6 5 -18 20 -28
36 -10 15 -22 27 -27 27 -17 0 -61 52 -56 65 3 8 17 15 32 17 37 4 41 24 7 36
l-28 10 28 11 c16 6 33 8 38 5 6 -3 27 -3 46 1 27 5 33 9 22 16 -10 6 -10 9
-1 9 6 0 12 6 12 14 0 13 35 10 118 -9z m-1285 -92 c-7 -2 -19 -2 -25 0 -7 3
-2 5 12 5 14 0 19 -2 13 -5z m3335 -68 c6 -14 8 -25 4 -25 -12 0 -32 23 -32
37 0 22 16 15 28 -12z m299 -56 c-3 -22 -2 -39 3 -39 4 0 11 -15 14 -34 4 -19
18 -51 32 -72 17 -25 24 -46 21 -63 -30 -164 -55 -217 -104 -223 -57 -6 -73
-119 -64 -428 4 -123 -2 -171 -36 -283 -16 -53 -19 -120 -8 -213 5 -45 3 -76
-9 -117 -21 -71 -20 -85 4 -132 11 -22 20 -59 20 -83 0 -24 11 -72 26 -107 26
-66 45 -160 37 -181 -8 -21 -35 -25 -92 -13 -77 15 -152 40 -246 82 -44 19
-115 49 -157 67 -43 18 -83 39 -89 46 -17 21 -165 74 -207 74 -42 0 -200 73
-241 111 -20 19 -40 23 -144 30 -69 4 -130 3 -144 -2 -32 -12 -90 -11 -114 1
-16 9 -18 19 -14 70 4 56 3 60 -24 80 -16 11 -37 20 -48 21 -10 0 -13 3 -8 5
7 3 7 32 -1 92 -14 97 -23 132 -34 132 -4 0 -28 11 -52 25 -45 25 -45 25 -38
66 6 33 4 49 -13 78 -12 20 -27 42 -34 49 -7 7 -13 24 -13 36 0 44 -22 85 -56
105 -40 24 -59 63 -44 91 9 18 12 18 38 3 24 -14 31 -14 62 0 l35 15 -30 13
-30 13 28 4 c38 5 34 22 -17 74 l-44 46 29 21 c60 45 111 23 235 -104 41 -41
79 -75 85 -75 5 0 28 -9 50 -20 40 -21 42 -27 23 -87 -2 -7 1 -13 5 -13 5 0
11 -18 13 -40 2 -22 0 -40 -4 -40 -5 0 -1 -11 7 -24 14 -21 86 -49 118 -46 4
0 15 -6 23 -15 20 -20 39 -19 72 4 35 25 87 32 87 11 0 -20 25 -52 55 -71 14
-9 59 -20 100 -23 88 -8 150 -23 150 -36 0 -6 23 -10 51 -10 57 0 78 16 79 60
0 54 -10 70 -45 70 -24 0 -34 6 -43 25 -7 14 -19 28 -27 31 -22 9 -18 30 11
59 31 31 26 58 -19 97 -24 22 -28 31 -19 40 9 9 12 9 12 0 0 -7 5 -12 10 -12
6 0 10 19 11 43 l0 42 16 -40 c9 -22 20 -41 25 -43 4 -2 8 -13 8 -24 0 -19 1
-19 30 2 17 12 30 27 30 34 0 8 7 19 15 26 8 7 15 22 15 34 0 13 11 33 24 46
14 12 28 35 31 51 7 30 11 32 57 29 l27 -1 -6 64 c-8 89 2 137 29 137 25 0
122 -76 137 -108 6 -13 11 -36 11 -52 0 -85 33 -79 55 11 16 64 16 73 2 107
-23 54 -46 395 -27 407 16 10 58 -64 64 -115 11 -82 25 -122 54 -151 l27 -25
21 40 c12 23 30 70 39 106 10 36 21 70 25 75 4 6 11 30 15 55 9 56 12 61 31
53 12 -5 15 -15 11 -44z m880 20 c39 -14 55 -53 56 -133 0 -97 -18 -131 -66
-120 -18 4 -43 8 -56 10 -13 1 -37 8 -53 15 -29 12 -30 14 -26 71 4 51 2 58
-14 58 -16 0 -42 38 -33 48 8 9 44 -11 48 -26 3 -10 5 -6 6 10 0 15 13 41 28
57 29 30 49 32 110 10z m-1539 -37 c18 -23 15 -49 -8 -72 -11 -11 -20 -23 -20
-26 0 -4 -15 -19 -32 -35 -25 -22 -40 -28 -60 -25 -19 4 -31 0 -40 -13 -15
-21 -82 -38 -91 -24 -3 4 -8 30 -12 56 -7 44 -6 49 14 54 11 3 21 11 21 17 0
6 15 18 33 25 17 8 40 18 50 23 13 6 24 1 41 -17 13 -14 25 -25 28 -25 2 0 4
15 5 34 1 19 4 39 7 44 8 14 48 3 64 -16z m-90 6 c-6 -18 -28 -21 -28 -4 0 9
7 16 16 16 9 0 14 -5 12 -12z m-1980 -86 c2 -12 -1 -22 -7 -22 -6 0 -11 4 -11
9 0 5 -3 17 -7 27 -4 12 -2 15 8 12 8 -2 15 -14 17 -26z m4842 -112 c0 -5 -4
-10 -10 -10 -5 0 -10 5 -10 10 0 6 5 10 10 10 6 0 10 -4 10 -10z m-3410 -145
c0 -30 -40 -130 -56 -142 -26 -19 -30 -17 -46 23 -19 46 -7 111 30 167 l26 38
23 -38 c12 -21 23 -42 23 -48z m3479 -26 c-8 -5 -18 -7 -24 -6 -15 5 -12 32 3
30 6 -2 12 3 12 10 0 6 5 4 11 -7 9 -14 8 -20 -2 -27z m-4249 -345 c0 -8 -5
-12 -10 -9 -6 4 -8 11 -5 16 9 14 15 11 15 -7z m3282 -51 c-2 -7 -10 -13 -18
-13 -21 0 -22 49 -1 62 13 8 27 -28 19 -49z m-3249 20 c-7 -2 -19 -2 -25 0 -7
3 -2 5 12 5 14 0 19 -2 13 -5z m90 -20 c-24 -2 -62 -2 -85 0 -24 2 -5 4 42 4
47 0 66 -2 43 -4z m3961 -437 c-8 -33 -34 -23 -34 14 0 31 20 45 33 24 4 -7 5
-24 1 -38z m-3559 -572 c20 -8 49 -13 64 -10 40 9 51 -4 71 -85 26 -98 83
-241 119 -298 16 -25 39 -66 50 -91 32 -71 139 -198 242 -287 110 -95 224
-156 399 -213 171 -56 387 -71 632 -46 20 2 46 -1 59 -8 24 -12 47 -64 48
-111 1 -28 41 -85 60 -85 4 0 13 -12 20 -26 10 -22 9 -31 -4 -50 -8 -13 -21
-24 -28 -25 -48 -3 -62 -10 -85 -39 -15 -18 -32 -49 -38 -69 -9 -30 -16 -36
-43 -39 -38 -4 -61 11 -54 36 3 14 -24 31 -129 84 -73 36 -154 73 -179 81 -41
14 -116 53 -129 67 -3 3 -49 28 -103 55 -55 28 -114 64 -132 82 -18 18 -52 41
-76 52 -24 12 -72 45 -105 73 -34 29 -81 69 -105 88 -57 45 -170 150 -187 173
-7 9 -18 17 -23 17 -6 0 -42 33 -81 73 -67 68 -71 74 -71 120 -1 44 -5 50 -33
46 -4 0 -11 5 -15 13 -6 9 -9 7 -9 -9 0 -13 -4 -23 -10 -23 -5 0 -10 6 -10 14
0 20 -23 26 -91 26 -52 0 -63 4 -84 26 -14 15 -25 33 -25 40 0 7 -17 15 -37
18 -40 7 -147 2 -173 -8 -8 -4 -39 2 -69 11 -55 18 -55 18 -67 73 -17 78 -4
100 71 121 43 12 89 39 66 39 -25 0 40 51 73 56 33 6 50 12 106 37 45 20 69
21 115 1z m479 -419 c3 -8 11 -15 18 -15 7 0 19 -9 25 -19 29 -46 147 -187
164 -195 11 -5 19 -13 19 -18 0 -4 5 -8 12 -8 6 0 19 -6 27 -14 9 -7 52 -29
97 -49 103 -45 196 -55 309 -34 105 20 119 26 191 81 34 25 66 46 71 46 5 0
20 11 33 25 28 30 34 31 59 6 53 -53 -62 -156 -259 -232 -76 -30 -308 -10
-415 36 -16 7 -50 20 -75 30 -40 16 -101 69 -239 206 -31 30 -76 133 -67 154
7 19 22 19 30 0z m2066 -981 c0 -22 2 -23 21 -13 18 9 25 7 42 -10 17 -17 19
-24 10 -43 -7 -13 -14 -32 -17 -43 -7 -25 -91 -53 -113 -39 -19 12 -27 149
-11 185 l12 27 28 -19 c18 -13 28 -29 28 -45z m-2913 -600 c32 -8 62 -22 66
-30 18 -31 70 -84 83 -84 8 0 14 -6 14 -14 0 -10 -16 -17 -47 -21 -27 -3 -68
-12 -93 -20 -25 -8 -58 -17 -75 -19 -16 -2 -51 -7 -76 -11 -49 -7 -89 5 -89
28 0 7 -13 27 -30 45 -16 18 -30 39 -30 46 0 7 -9 21 -20 31 -25 23 -25 26 2
54 21 23 25 23 130 17 59 -4 134 -14 165 -22z m-819 -401 c2 -9 -7 -13 -27
-13 -30 0 -39 9 -24 24 11 10 46 3 51 -11z m-698 -53 c0 -5 10 -10 23 -10 13
0 34 -12 48 -26 13 -14 36 -32 51 -40 41 -21 52 -48 33 -83 -18 -35 -18 -41
-5 -41 6 0 10 8 10 18 0 14 2 15 9 2 6 -8 7 -18 5 -22 -3 -4 6 -12 19 -17 29
-11 57 -47 57 -73 0 -22 -31 -26 -103 -11 -58 11 -85 23 -55 23 10 0 17 13 21
36 5 30 2 40 -16 54 -24 20 -42 16 -33 -6 3 -7 -3 -18 -14 -24 -24 -13 -35 3
-32 50 2 20 -6 54 -18 78 -30 62 -39 89 -33 96 10 10 33 7 33 -4z m464 -812
c-3 -18 -15 -45 -25 -60 -10 -15 -19 -36 -19 -47 0 -11 -4 -22 -9 -25 -5 -3
-9 -22 -8 -41 1 -40 -1 -44 -33 -47 -27 -3 -64 47 -44 60 6 4 14 19 17 34 4
14 18 39 31 55 14 16 27 40 31 54 5 21 32 44 57 48 4 0 5 -14 2 -31z m115
-187 c2 -1 -8 -12 -23 -26 -28 -26 -59 -24 -49 3 10 27 28 32 72 23z m-94 -70
c3 -5 1 -12 -5 -16 -5 -3 -10 1 -10 9 0 18 6 21 15 7z m185 -480 c0 -6 -25
-28 -56 -50 -32 -23 -63 -50 -71 -61 -8 -11 -19 -20 -24 -20 -6 0 -35 -24 -64
-52 -30 -29 -82 -78 -116 -108 -35 -30 -79 -70 -98 -88 -20 -18 -48 -41 -63
-50 -16 -9 -28 -20 -28 -24 0 -4 -9 -8 -19 -8 -10 0 -22 -7 -25 -16 -4 -9 -9
-14 -13 -10 -6 6 -31 -30 -69 -99 -13 -25 -211 -191 -259 -218 -24 -13 -17 7
18 53 17 24 37 51 42 61 6 9 31 34 55 54 25 21 51 46 58 56 7 10 41 36 76 59
35 23 68 52 74 64 6 13 28 37 49 52 21 16 42 36 47 44 14 24 130 130 142 130
6 0 24 12 40 27 50 47 128 103 152 109 12 4 22 10 22 14 0 9 110 90 122 90 5
0 8 -4 8 -9z m1620 -181 c0 -5 -4 -10 -10 -10 -5 0 -10 5 -10 10 0 6 5 10 10
10 6 0 10 -4 10 -10z m-461 -282 c-12 -29 -28 -60 -36 -68 -11 -12 -13 -10
-13 13 0 29 25 76 47 90 7 4 13 16 14 25 0 9 3 12 5 5 3 -6 -5 -35 -17 -65z
m187 -82 c-19 -50 -38 -207 -40 -336 -1 -82 -4 -100 -23 -124 -13 -15 -25 -44
-28 -65 -8 -50 -26 -115 -34 -121 -3 -3 -17 -27 -29 -55 -21 -43 -25 -47 -34
-31 -12 22 -3 116 11 126 19 11 25 114 9 146 -12 24 -13 33 -2 54 8 14 14 34
14 45 0 11 7 30 15 42 19 27 85 212 85 239 0 23 39 140 55 164 18 27 18 -39 1
-84z m398 -82 c-9 -148 2 -271 27 -292 27 -24 23 -82 -6 -82 -8 0 -19 -17 -25
-37 -6 -21 -15 -47 -20 -58 -5 -11 -11 -42 -14 -70 -6 -50 -32 -132 -47 -149
-17 -19 -29 48 -29 154 0 60 -5 131 -11 158 -11 46 -10 55 18 123 31 75 48
150 57 247 5 50 31 112 48 112 5 0 6 -48 2 -106z m-658 -36 c-4 -35 -14 -82
-22 -106 -8 -23 -14 -76 -14 -117 0 -64 -5 -85 -35 -149 -19 -41 -35 -82 -35
-91 0 -9 -5 -26 -11 -37 -11 -21 -12 -21 -25 -3 -9 12 -14 47 -14 98 0 64 5
90 24 131 13 28 27 69 31 91 4 22 14 53 22 69 9 16 17 43 20 60 3 17 9 39 14
49 5 9 7 17 3 17 -4 0 3 11 16 25 13 14 26 25 28 25 3 0 1 -28 -2 -62z m-206
-116 c0 -16 -7 -37 -15 -48 -9 -12 -14 -42 -15 -79 0 -63 -11 -85 -42 -85 -13
0 -20 -10 -24 -30 -4 -16 -11 -30 -16 -30 -6 0 -8 10 -5 21 3 12 -3 42 -13 68
-40 101 8 211 92 211 35 0 38 -2 38 -28z m2532 20 c10 -4 31 -29 48 -55 24
-38 28 -52 20 -68 -15 -27 -77 -51 -100 -39 -28 15 -77 139 -63 163 5 9 72 8
95 -1z m-4366 -99 c-10 -10 -19 5 -10 18 6 11 8 11 12 0 2 -7 1 -15 -2 -18z
m1011 -415 c-3 -8 -6 -5 -6 6 -1 11 2 17 5 13 3 -3 4 -12 1 -19z m-91 -190
c-3 -29 -26 -66 -46 -73 -12 -5 -13 -4 -2 6 6 7 12 20 12 29 0 14 26 60 35 60
2 0 2 -10 1 -22z m944 -1 c0 -7 -7 -22 -15 -33 -14 -18 -14 -17 -15 14 0 22 5
32 15 32 8 0 15 -6 15 -13z m-1073 -299 c-3 -7 -5 -2 -5 12 0 14 2 19 5 13 2
-7 2 -19 0 -25z m-12 -38 c9 -15 -16 -90 -47 -139 -15 -25 -28 -51 -28 -58 0
-7 -4 -13 -10 -13 -23 0 5 129 40 186 22 35 34 41 45 24z m-191 -786 c7 -25
-15 -64 -34 -64 -17 0 -19 33 -5 66 16 39 29 38 39 -2z m1533 -21 c-3 -10 -5
-4 -5 12 0 17 2 24 5 18 2 -7 2 -21 0 -30z m-1567 -83 c0 -5 -5 -10 -11 -10
-5 0 -7 5 -4 10 3 6 8 10 11 10 2 0 4 -4 4 -10z"/>
<path d="M6218 10252 c-10 -2 -18 -8 -18 -13 0 -11 11 -11 30 1 18 11 11 18
-12 12z"/>
<path d="M2185 9540 c-10 -16 7 -31 23 -21 10 6 10 10 -2 20 -10 9 -16 9 -21
1z"/>
<path d="M2090 9504 c0 -10 7 -14 22 -12 32 5 35 28 4 28 -17 0 -26 -5 -26
-16z"/>
<path d="M2360 9330 c0 -5 5 -10 11 -10 5 0 7 5 4 10 -3 6 -8 10 -11 10 -2 0
-4 -4 -4 -10z"/>
<path d="M2053 9289 c-71 -27 -69 -43 4 -36 57 6 91 26 79 46 -10 15 -22 13
-83 -10z"/>
<path d="M2775 8900 c3 -5 10 -10 16 -10 5 0 9 5 9 10 0 6 -7 10 -16 10 -8 0
-12 -4 -9 -10z"/>
<path d="M4060 7695 c-9 -11 -9 -15 -1 -15 6 0 11 -8 12 -17 0 -14 2 -15 6 -3
3 8 9 17 13 20 4 3 2 10 -5 17 -10 10 -16 9 -25 -2z"/>
<path d="M4491 7466 c-7 -8 -13 -51 -13 -106 -2 -110 -3 -109 100 -114 12 -1
19 9 23 34 6 41 -12 95 -46 130 -12 14 -25 34 -27 44 -4 25 -22 31 -37 12z"/>
<path d="M10771 10356 c-7 -8 -14 -34 -16 -58 -3 -24 -12 -59 -21 -79 -13 -30
-24 -39 -58 -49 l-43 -12 0 -111 c0 -95 -3 -118 -22 -154 -12 -24 -18 -43 -14
-43 5 0 3 -4 -3 -8 -6 -4 -16 -47 -22 -97 -9 -78 -14 -92 -37 -112 -14 -13
-31 -23 -38 -23 -23 0 -65 -66 -72 -112 -6 -41 -4 -47 20 -66 15 -12 31 -19
36 -16 5 3 12 -2 15 -11 7 -17 -34 -65 -54 -65 -5 0 -16 -9 -23 -20 -10 -14
-18 -17 -28 -11 -19 12 3 67 30 74 24 6 25 37 1 37 -10 0 -24 9 -32 20 -8 11
-19 20 -25 20 -17 0 -36 -39 -42 -90 -5 -42 -3 -50 16 -62 25 -16 26 -22 4
-93 -12 -37 -42 -89 -90 -153 -40 -53 -73 -101 -73 -105 0 -5 -12 -24 -27 -43
l-27 -35 17 -87 c34 -183 37 -166 -40 -238 -37 -35 -72 -64 -79 -64 -6 0 -19
-9 -29 -20 -10 -11 -24 -20 -31 -20 -25 0 -74 -36 -91 -67 -17 -32 -17 -33 10
-61 22 -23 27 -37 27 -78 0 -44 22 -277 35 -379 3 -22 12 -46 20 -54 12 -12
12 -16 0 -25 -8 -6 -17 -25 -21 -42 -6 -30 -5 -30 33 -29 21 1 46 5 56 9 9 5
24 6 32 2 10 -4 15 1 15 14 0 30 14 24 28 -12 11 -30 13 -31 30 -15 35 31 95
15 103 -28 3 -13 14 -21 31 -23 15 -2 30 -11 33 -21 3 -10 21 -35 40 -54 19
-20 35 -43 35 -52 0 -8 4 -15 9 -15 14 0 69 -112 84 -175 8 -33 15 -94 15
-135 0 -47 6 -92 17 -120 11 -27 19 -80 21 -135 6 -189 6 -322 -1 -386 -6 -49
-3 -79 8 -115 8 -27 18 -87 20 -134 3 -47 11 -105 18 -130 15 -57 6 -110 -27
-149 -15 -18 -31 -56 -39 -98 -9 -37 -20 -86 -27 -108 -13 -47 -13 -131 1
-166 7 -17 10 -19 10 -6 2 32 19 17 26 -22 9 -53 -7 -81 -42 -75 -47 9 -64 23
-53 43 7 14 6 22 -5 31 -13 11 -15 7 -15 -23 0 -33 -14 -56 -27 -44 -11 12 -8
99 9 237 23 186 23 190 -2 190 -11 0 -20 4 -20 8 0 5 9 18 20 30 11 12 20 26
20 32 0 5 4 10 8 10 5 0 9 28 8 63 -1 46 -7 71 -24 99 -14 23 -29 72 -38 130
-20 121 -33 310 -22 323 16 18 9 120 -9 141 -22 23 -39 60 -47 97 -4 15 -11
27 -16 27 -6 0 -10 13 -10 29 0 16 -5 53 -12 81 l-12 52 -41 -6 c-26 -3 -46
-1 -53 6 -9 9 -15 9 -24 0 -16 -16 -28 -15 -28 3 0 10 -9 13 -36 9 -20 -2 -40
-7 -45 -10 -11 -6 -11 -121 0 -149 10 -24 -19 -109 -45 -135 -11 -10 -31 -22
-45 -25 -20 -5 -29 -1 -42 19 -40 61 -116 116 -179 130 -14 3 -39 16 -55 29
-15 13 -48 29 -72 37 -39 13 -47 12 -74 -4 -20 -11 -72 -21 -144 -28 -99 -10
-115 -9 -130 5 -29 26 -67 30 -165 17 -62 -8 -114 -22 -156 -41 -34 -16 -77
-32 -95 -35 -41 -8 -175 -53 -207 -70 -53 -28 -101 -46 -263 -99 -206 -67
-366 -131 -401 -159 -35 -27 -32 -42 49 -256 l33 -85 70 -36 c39 -19 77 -41
85 -47 18 -15 138 -31 231 -32 77 0 200 30 255 62 50 29 166 129 185 159 9 15
27 29 40 33 24 6 41 51 30 80 -3 7 4 29 15 47 14 23 21 52 21 89 0 30 7 63 14
72 12 16 14 16 24 -8 25 -52 2 -173 -37 -201 -13 -9 -21 -25 -21 -43 0 -16 -4
-32 -10 -35 -5 -3 -10 -25 -10 -48 0 -39 -5 -46 -82 -119 -86 -81 -156 -122
-258 -151 -91 -26 -141 -29 -276 -18 -124 11 -184 25 -184 41 0 5 -15 13 -32
19 -50 17 -229 200 -264 269 -14 29 -13 35 7 82 l22 51 -20 21 c-20 19 -22 19
-56 3 -19 -9 -53 -32 -75 -51 -22 -19 -44 -34 -49 -35 -14 -1 -92 -101 -114
-145 -38 -79 -52 -194 -46 -365 7 -169 15 -203 65 -257 12 -13 10 -37 -8 -92
-6 -22 -1 -31 31 -63 22 -20 39 -31 39 -25 0 6 7 19 15 28 9 10 17 46 21 94 5
72 4 78 -15 83 -20 5 -26 15 -22 37 1 4 -3 14 -9 21 -7 8 -4 17 10 30 17 15
24 16 50 5 24 -10 29 -17 25 -34 -5 -17 -4 -18 4 -6 6 8 11 11 11 5 0 -5 9 1
19 14 15 19 18 37 14 85 -3 51 0 65 17 85 19 23 25 24 98 18 42 -3 109 -14
147 -23 84 -21 434 -25 528 -6 74 15 186 64 262 115 107 72 244 229 304 347
18 36 48 90 67 120 28 46 35 70 42 141 11 102 20 121 58 124 175 16 249 15
298 -2 28 -10 53 -20 56 -23 3 -3 32 -19 65 -36 51 -27 64 -40 86 -84 33 -66
45 -196 23 -248 -8 -19 -14 -43 -14 -54 0 -43 -120 -175 -166 -184 -17 -3 -46
-19 -64 -35 -60 -55 -78 -63 -140 -60 -54 2 -88 -7 -150 -38 -26 -14 -24 -48
5 -67 18 -11 23 -20 16 -27 -7 -7 4 -24 35 -53 35 -32 57 -44 92 -49 26 -4 49
-10 52 -14 9 -14 80 -21 80 -8 0 7 5 4 11 -6 8 -14 8 -22 0 -30 -6 -6 -11 -27
-11 -47 0 -50 24 -70 83 -70 62 0 97 -17 104 -51 4 -22 13 -29 52 -39 59 -15
121 -21 144 -14 21 7 49 66 41 87 -7 19 12 32 66 45 72 17 140 5 172 -32 15
-17 28 -43 28 -57 0 -27 19 -90 29 -99 13 -11 41 -73 41 -91 0 -20 26 -68 45
-81 5 -4 22 -8 37 -8 36 0 46 -21 56 -114 6 -52 5 -82 -4 -98 -6 -13 -14 -50
-17 -83 -6 -54 -9 -62 -47 -93 -51 -43 -64 -66 -51 -91 7 -11 7 -29 1 -47 -35
-114 -35 -110 -4 -148 16 -19 37 -38 47 -41 27 -10 11 -23 -39 -31 -25 -3 -50
-12 -57 -18 -7 -7 -27 -18 -45 -25 -23 -10 -39 -27 -52 -57 -11 -24 -29 -48
-40 -54 -12 -6 -20 -16 -19 -23 4 -21 -13 -47 -29 -47 -10 0 -6 -8 14 -26 31
-28 132 -78 232 -114 74 -27 83 -50 20 -50 -24 0 -63 5 -88 11 -48 12 -228 14
-261 4 -10 -4 -17 -10 -14 -15 8 -14 117 -70 135 -70 8 0 24 -6 35 -13 11 -8
49 -22 85 -31 59 -16 212 -79 266 -109 11 -7 63 -40 115 -74 51 -35 98 -63
103 -63 5 0 19 -8 30 -19 12 -10 31 -22 44 -26 l22 -6 0 3300 c0 1887 -4 3301
-9 3301 -5 0 -14 -6 -20 -14z m-179 -838 c-8 -8 -9 -4 -5 13 4 13 8 18 11 10
2 -7 -1 -18 -6 -23z m-592 -1762 c0 -11 -19 -15 -25 -6 -3 5 1 10 9 10 9 0 16
-2 16 -4z m-1166 -1072 c23 -9 20 -40 -6 -58 -53 -37 -92 0 -44 41 30 26 29
25 50 17z"/>
<path d="M9623 10057 c-27 -12 -29 -29 -7 -48 14 -11 18 -10 30 6 27 37 14 60
-23 42z"/>
<path d="M8855 8993 c-67 -70 -95 -105 -95 -123 0 -14 -3 -35 -6 -47 -5 -17
-2 -23 10 -23 10 0 16 8 16 23 0 15 11 28 35 41 19 11 35 23 35 28 0 4 6 8 14
8 9 0 17 -15 21 -39 9 -53 26 -75 52 -67 24 8 43 46 43 85 0 15 11 50 25 77
40 79 29 134 -26 134 -25 0 -46 -16 -124 -97z"/>
<path d="M8420 8916 c-5 -14 -11 -85 -13 -159 -3 -114 -1 -138 13 -157 17 -22
17 -22 40 31 20 47 23 69 22 172 0 64 -4 122 -7 127 -12 19 -45 10 -55 -14z"/>
<path d="M8641 8924 c0 -11 3 -14 6 -6 3 7 2 16 -1 19 -3 4 -6 -2 -5 -13z"/>
<path d="M10240 7565 c0 -8 5 -15 10 -15 6 0 10 7 10 15 0 8 -4 15 -10 15 -5
0 -10 -7 -10 -15z"/>
<path d="M5760 7160 c0 -5 5 -10 10 -10 6 0 10 5 10 10 0 6 -4 10 -10 10 -5 0
-10 -4 -10 -10z"/>
<path d="M6212 6140 c0 -14 2 -19 5 -12 2 6 2 18 0 25 -3 6 -5 1 -5 -13z"/>
<path d="M6185 6091 c2 -14 -1 -36 -6 -50 -6 -13 -7 -32 -3 -40 4 -9 8 -20 8
-25 2 -18 26 -17 33 1 3 10 11 22 17 26 8 6 7 10 -1 14 -7 2 -13 18 -13 34 0
18 -5 29 -14 29 -8 0 -17 8 -19 18 -2 9 -3 6 -2 -7z"/>
<path d="M9096 5963 c-16 -8 -55 -17 -85 -18 -68 -4 -83 -9 -122 -46 -17 -16
-38 -29 -45 -29 -8 0 -17 -6 -20 -14 -3 -8 -28 -16 -60 -20 -97 -11 -195 -44
-257 -86 -33 -22 -66 -40 -72 -40 -7 0 -24 -10 -38 -22 -14 -13 -46 -35 -70
-50 -25 -16 -50 -41 -57 -57 -8 -20 -21 -32 -40 -36 -16 -3 -33 -12 -38 -18
-14 -18 -25 -87 -14 -87 15 0 23 -31 12 -45 -6 -7 -11 -33 -12 -58 0 -41 4
-51 41 -88 22 -23 41 -45 41 -48 0 -3 14 -12 30 -19 17 -8 30 -18 30 -23 0 -5
8 -17 18 -27 9 -10 22 -26 27 -35 11 -18 55 -13 55 6 0 12 25 32 68 53 32 16
38 35 34 103 0 8 6 21 14 29 8 8 18 27 21 43 3 16 10 29 15 29 5 0 6 5 3 10
-11 18 35 80 75 100 31 16 39 27 49 65 8 31 25 59 54 88 42 43 65 52 208 81
20 4 31 17 43 46 9 23 30 49 49 62 19 12 38 31 43 42 5 12 20 22 37 24 32 4
35 16 6 35 -19 14 -19 16 -3 25 10 6 15 16 11 26 -8 20 -14 20 -51 -1z"/>
<path d="M9308 5288 c-16 -7 -28 -18 -28 -25 0 -7 -3 -13 -7 -13 -23 -1 -133
-125 -133 -150 0 -5 -9 -19 -20 -30 -10 -10 -29 -38 -41 -62 -12 -24 -36 -60
-54 -80 -25 -30 -31 -44 -27 -70 9 -67 28 -71 133 -28 107 44 137 41 264 -23
126 -64 74 -57 485 -59 l195 -1 3 23 c4 21 7 22 61 17 32 -4 73 -4 92 -1 l34
6 -3 54 c-2 30 -8 54 -13 54 -13 0 -11 34 2 47 8 8 8 13 0 17 -6 4 -11 19 -11
33 0 22 -3 24 -27 18 -16 -3 -39 -14 -52 -23 -13 -9 -31 -21 -40 -27 -19 -12
-34 -33 -41 -59 -6 -19 -90 -52 -90 -35 0 5 -7 9 -15 9 -8 0 -15 -4 -15 -10 0
-5 -9 -14 -20 -20 -24 -13 -64 5 -56 25 5 15 -14 25 -49 25 -14 0 -29 9 -35
19 -5 11 -22 21 -37 23 -24 3 -28 8 -31 41 -2 20 -7 37 -12 37 -16 0 -42 61
-37 86 2 13 1 21 -3 19 -4 -3 -13 17 -20 43 -16 62 -41 111 -60 117 -39 11
-267 13 -292 3z m821 -444 c17 -4 31 -11 31 -17 0 -12 -131 0 -144 14 -11 10
64 13 113 3z m-119 -48 c0 -11 -19 -15 -25 -6 -3 5 1 10 9 10 9 0 16 -2 16 -4z"/>
<path d="M8351 5056 c-8 -9 -19 -16 -26 -16 -16 0 -33 -37 -40 -88 -5 -35 -3
-47 12 -58 25 -19 63 -17 110 6 36 17 41 24 46 62 7 53 -6 78 -40 78 -14 0
-31 7 -37 16 -11 14 -13 14 -25 0z"/>
<path d="M10103 4723 c15 -2 39 -2 55 0 15 2 2 4 -28 4 -30 0 -43 -2 -27 -4z"/>
<path d="M5009 4681 c-24 -20 -24 -20 -4 -35 37 -30 126 1 112 38 -9 23 -79
21 -108 -3z"/>
<path d="M5280 4669 c0 -19 4 -21 36 -16 20 3 39 8 41 11 12 12 -11 26 -43 26
-28 0 -34 -4 -34 -21z"/>
<path d="M8174 4621 c-30 -8 -74 -64 -65 -80 10 -16 52 -5 80 20 11 11 33 24
47 30 16 5 23 13 18 18 -14 13 -56 19 -80 12z"/>
<path d="M4766 4599 c-33 -26 -35 -59 -2 -59 29 0 90 40 94 63 5 25 -58 23
-92 -4z"/>
<path d="M9056 4485 c-17 -13 -15 -14 21 -24 26 -7 51 -7 72 -1 19 5 38 7 42
4 5 -3 9 -1 9 4 0 11 -68 32 -101 32 -13 0 -32 -7 -43 -15z"/>
<path d="M9900 4460 c-18 -4 -25 -13 -25 -30 0 -34 35 -37 57 -6 21 29 6 46
-32 36z"/>
<path d="M3118 4336 c-16 -8 -56 -23 -89 -33 -34 -10 -72 -28 -85 -40 -12 -11
-48 -33 -80 -47 -68 -31 -204 -116 -204 -128 0 -4 -6 -8 -13 -8 -19 0 -57 -43
-57 -63 0 -10 11 -22 24 -27 35 -13 139 -3 199 19 116 42 147 56 147 67 0 17
67 84 83 84 9 0 17 4 19 9 4 11 123 71 142 71 24 0 40 38 24 58 -38 49 -69 60
-110 38z"/>
<path d="M3290 4290 c0 -5 7 -10 15 -10 8 0 15 5 15 10 0 6 -7 10 -15 10 -8 0
-15 -4 -15 -10z"/>
<path d="M4795 4279 c-16 -10 -34 -21 -40 -23 -5 -2 -2 -12 7 -22 17 -17 18
-17 41 4 13 12 31 22 40 22 10 0 17 8 17 20 0 25 -25 25 -65 -1z"/>
<path d="M3310 4248 c0 -4 6 -8 13 -8 8 0 22 -9 32 -20 22 -24 41 -25 89 -5
40 17 40 41 0 31 -13 -4 -24 -2 -24 2 0 5 -25 9 -55 8 -30 0 -55 -4 -55 -8z"/>
<path d="M9562 4222 c-23 -9 -41 -21 -39 -26 10 -29 204 -49 248 -25 11 5 38
11 60 11 21 0 42 4 45 9 3 5 -5 9 -18 9 -13 0 -28 4 -33 8 -38 33 -191 41
-263 14z"/>
<path d="M8979 4083 c-15 -2 -38 -16 -53 -31 l-26 -28 42 -32 c24 -18 74 -42
113 -53 38 -11 79 -25 90 -30 50 -23 219 -9 270 23 16 10 37 18 46 18 8 0 23
6 33 13 16 12 17 16 5 35 -17 28 -59 42 -123 42 -28 0 -72 7 -99 15 -26 8 -91
16 -145 19 -53 2 -104 6 -112 9 -8 2 -27 2 -41 0z"/>
<path d="M4956 3867 c-9 -35 -7 -40 9 -27 17 14 20 36 6 44 -5 3 -11 -4 -15
-17z"/>
<path d="M8821 3831 c-9 -16 -7 -23 11 -35 12 -9 30 -16 40 -16 10 0 52 -12
94 -26 42 -14 84 -24 95 -22 19 3 19 4 -1 35 -22 37 -69 64 -118 69 -20 1 -52
6 -73 9 -31 5 -39 3 -48 -14z"/>
<path d="M4884 3755 c-15 -23 -10 -56 6 -38 9 10 22 63 15 63 -2 0 -12 -11
-21 -25z"/>
<path d="M10770 3723 c-28 -10 -37 -31 -31 -74 5 -36 10 -44 34 -50 l27 -7 0
69 c0 38 -3 69 -7 68 -5 0 -15 -3 -23 -6z"/>
<path d="M3646 3613 c-56 -3 -75 -9 -98 -28 -16 -14 -39 -25 -50 -25 -17 0
-43 -15 -93 -52 -5 -4 -23 -19 -39 -33 -16 -14 -66 -44 -111 -67 -88 -44 -87
-42 -40 -89 16 -16 28 -19 57 -14 21 4 109 8 195 9 125 2 164 6 188 19 64 35
155 154 155 203 0 38 -43 85 -74 82 -11 -1 -52 -4 -90 -5z"/>
<path d="M9637 3603 c-4 -3 -7 -14 -7 -24 0 -10 -12 -21 -29 -27 -21 -8 -29
-18 -34 -43 -3 -19 -8 -42 -12 -51 -5 -13 0 -19 22 -24 47 -12 142 -64 153
-84 15 -27 13 -30 -20 -30 -25 0 -30 -4 -30 -23 0 -40 81 -100 170 -127 25 -8
63 -26 85 -40 22 -14 52 -31 67 -38 16 -6 30 -22 34 -37 4 -16 20 -33 45 -45
21 -11 43 -29 49 -40 12 -22 70 -50 105 -50 28 0 44 19 90 108 20 39 41 74 46
77 5 4 5 13 -1 23 -5 9 -11 28 -14 43 -3 14 -25 45 -49 70 -56 57 -64 78 -38
99 26 19 14 40 -25 44 -16 2 -33 4 -38 5 -4 0 -6 7 -3 15 7 18 -11 25 -46 19
-17 -3 -36 2 -56 16 -16 12 -34 21 -40 21 -6 0 -28 9 -48 20 -21 11 -49 20
-62 20 -14 0 -56 16 -94 36 -65 33 -175 74 -202 74 -6 0 -15 -3 -18 -7z m223
-374 c0 -18 -18 -9 -23 12 -4 16 -3 18 9 8 8 -6 14 -15 14 -20z"/>
<path d="M3997 3563 c-4 -3 -7 -15 -7 -25 0 -17 2 -18 15 -4 8 8 15 19 15 25
0 12 -13 15 -23 4z"/>
<path d="M4081 3528 c-11 -18 -30 -43 -42 -55 -26 -26 -19 -53 13 -53 33 1 54
20 83 74 32 60 31 66 -5 66 -24 0 -35 -7 -49 -32z"/>
<path d="M4610 3523 c0 -22 2 -25 10 -13 13 20 13 40 0 40 -5 0 -10 -12 -10
-27z"/>
<path d="M3936 3487 c-49 -38 -146 -138 -146 -151 0 -7 -11 -23 -25 -36 -34
-32 -32 -50 5 -50 20 0 33 6 37 18 4 9 27 36 50 60 24 23 48 53 53 66 5 15 20
25 39 29 28 6 31 10 31 47 0 46 -4 48 -44 17z"/>
<path d="M4570 3451 c0 -11 -11 -32 -24 -48 -55 -66 -73 -121 -80 -245 -3 -65
-2 -118 2 -118 13 0 70 130 81 185 10 45 23 95 53 192 5 18 6 37 3 43 -11 17
-35 11 -35 -9z"/>
<path d="M8518 3433 c7 -3 16 -2 19 1 4 3 -2 6 -13 5 -11 0 -14 -3 -6 -6z"/>
<path d="M8226 3402 c-4 -6 -1 -14 5 -17 5 -4 8 -13 6 -19 -3 -7 -2 -17 1 -22
12 -16 109 -64 129 -64 18 0 43 17 43 30 0 19 -69 78 -96 83 -18 3 -43 9 -57
12 -14 4 -28 2 -31 -3z"/>
<path d="M9526 3387 c-17 -13 -17 -14 6 -29 25 -16 108 -34 108 -23 0 11 -23
29 -55 45 -16 8 -32 16 -35 17 -3 2 -14 -3 -24 -10z"/>
<path d="M9333 3300 c-41 -17 -30 -61 28 -118 55 -54 60 -82 16 -82 -14 0 -31
-9 -39 -22 -13 -20 -16 -20 -39 -5 -13 9 -46 21 -72 28 -41 10 -57 9 -100 -4
-29 -9 -65 -19 -80 -22 -35 -7 -95 -68 -103 -103 -18 -83 -52 -112 -130 -112
-88 0 -109 -29 -97 -129 4 -33 2 -51 -5 -51 -5 0 -33 -18 -61 -40 -65 -52 -91
-100 -84 -160 5 -43 3 -47 -46 -98 -44 -46 -51 -59 -51 -93 0 -22 -9 -57 -19
-77 -11 -21 -22 -56 -26 -77 -4 -22 -15 -52 -26 -67 -10 -15 -19 -31 -19 -36
0 -13 -65 -62 -82 -62 -12 0 -51 -34 -99 -87 -9 -10 -19 -28 -23 -40 -5 -15
-21 -25 -57 -34 -42 -11 -59 -23 -98 -68 -29 -34 -41 -56 -33 -58 6 -3 12 -13
12 -24 0 -15 -7 -19 -35 -19 -19 0 -53 -7 -76 -17 -41 -16 -58 -29 -137 -106
-24 -23 -63 -51 -85 -62 -24 -11 -48 -32 -55 -47 -25 -53 -78 -46 -137 17 -29
31 -35 33 -80 28 -82 -7 -90 -11 -113 -52 -13 -22 -22 -42 -20 -43 5 -6 -63
-97 -87 -116 -14 -11 -25 -30 -25 -42 0 -13 -8 -24 -20 -27 -11 -3 -17 -9 -14
-15 3 -5 0 -15 -6 -23 -10 -12 -10 -15 0 -15 7 0 1 -11 -14 -25 -14 -13 -26
-32 -27 -42 -4 -69 -3 -68 -29 -65 -14 1 -41 -4 -60 -13 -40 -18 -78 -88 -91
-168 -10 -63 -38 -86 -101 -87 l-48 0 0 43 c-1 48 -44 187 -62 198 -7 4 -14
47 -18 105 -6 87 -9 99 -31 116 -58 46 -99 92 -125 142 -30 57 -57 77 -133 96
-42 11 -45 10 -66 -15 -35 -40 -41 -92 -15 -127 12 -16 20 -31 18 -32 -1 -2
-12 -8 -22 -13 -11 -6 -24 -26 -30 -44 -9 -27 -17 -35 -40 -37 -16 -2 -32 2
-37 9 -4 7 -22 15 -39 17 -25 3 -33 -1 -37 -17 -3 -12 -9 -21 -14 -21 -5 0 -9
-22 -9 -50 0 -27 -4 -50 -10 -50 -5 0 -12 -16 -16 -35 -3 -19 -10 -38 -15 -41
-12 -7 -11 -84 1 -84 6 0 10 -62 10 -165 0 -186 7 -217 48 -206 20 6 28 16 33
41 8 37 40 70 68 70 9 -1 36 -11 60 -23 33 -16 45 -28 46 -45 1 -13 7 -27 14
-32 7 -4 11 -18 9 -31 -2 -19 -11 -25 -38 -29 -33 -5 -35 -7 -32 -40 2 -26 -4
-43 -20 -60 -13 -14 -23 -29 -24 -35 0 -5 -6 -26 -14 -46 -23 -63 -75 -69
-475 -54 -167 6 -249 5 -299 -4 -37 -7 -127 -12 -199 -12 -131 -1 -155 -5
-247 -47 -36 -16 -191 -30 -363 -31 -79 -1 -92 -4 -123 -27 -28 -22 -43 -26
-86 -24 -105 5 -147 5 -151 0 -3 -3 -8 -22 -12 -43 l-7 -37 3281 0 3281 0 0
55 0 55 -62 -6 c-35 -3 -71 -7 -80 -9 -25 -4 -184 32 -221 52 -107 54 10 81
197 44 103 -20 109 -20 137 -4 l29 17 0 103 c0 95 -1 103 -19 103 -11 0 -42
-23 -69 -50 -52 -53 -82 -62 -118 -35 -13 10 -44 14 -96 15 -67 0 -80 3 -90
20 -7 11 -24 20 -38 20 -33 0 -70 11 -70 20 0 9 93 9 100 -1 10 -14 50 11 50
31 0 15 6 20 23 19 41 -4 87 12 85 30 -3 13 9 16 72 17 41 0 96 -6 123 -12
l47 -13 0 833 c0 643 -3 835 -12 844 -10 10 -10 17 0 32 7 12 12 56 12 111 l0
90 -42 -22 c-73 -37 -77 -39 -88 -39 -5 0 -10 7 -10 16 0 19 65 84 84 84 27 0
56 46 56 88 0 42 0 42 -38 42 -24 0 -50 -9 -69 -22 -17 -13 -41 -30 -52 -38
-12 -8 -21 -19 -21 -25 0 -11 -64 -65 -77 -65 -5 0 -14 -9 -21 -20 -15 -25
-56 -26 -81 -1 -25 25 -87 45 -114 37 -12 -4 -60 -11 -107 -16 -47 -6 -106
-13 -132 -16 -43 -6 -50 -4 -78 24 l-31 31 26 50 c14 28 25 60 25 71 0 11 9
38 20 60 11 22 20 46 20 53 0 8 18 26 39 40 64 42 64 92 2 160 -34 38 -208
161 -278 198 -31 16 -73 45 -94 64 -21 19 -51 38 -66 41 -16 4 -44 15 -63 25
-52 26 -212 96 -235 102 -11 3 -30 2 -42 -3z m87 -349 c16 -30 12 -36 -10 -16
-21 19 -26 35 -10 35 5 0 14 -9 20 -19z m1224 -636 c7 -20 -86 -115 -114 -115
-20 0 -22 4 -15 37 8 45 12 53 28 53 7 0 28 9 47 19 43 24 46 25 54 6z m21
-264 c6 -11 -29 -33 -39 -24 -7 7 12 33 25 33 4 0 10 -4 14 -9z m65 -122 c0
-14 -7 -19 -30 -19 -31 0 -39 17 -19 37 16 16 49 4 49 -18z m-125 -24 c0 -5
-10 -11 -22 -13 -16 -2 -23 2 -23 13 0 11 7 15 23 13 12 -2 22 -7 22 -13z
m-3785 -1215 c0 -5 -4 -10 -10 -10 -5 0 -10 5 -10 10 0 6 5 10 10 10 6 0 10
-4 10 -10z"/>
<path d="M10270 3300 c0 -5 4 -10 9 -10 6 0 13 5 16 10 3 6 -1 10 -9 10 -9 0
-16 -4 -16 -10z"/>
<path d="M5695 1860 c3 -5 10 -10 16 -10 5 0 9 5 9 10 0 6 -7 10 -16 10 -8 0
-12 -4 -9 -10z"/>
<path d="M5688 1833 c6 -2 18 -2 25 0 6 3 1 5 -13 5 -14 0 -19 -2 -12 -5z"/>
<path d="M5886 1831 c-33 -5 -41 -11 -47 -35 -9 -32 4 -66 25 -66 20 0 53 42
59 78 4 17 5 31 4 31 -1 -1 -20 -5 -41 -8z"/>
<path d="M5035 1115 c8 -37 10 -39 30 -32 20 8 19 26 -2 34 -10 4 -22 11 -26
17 -5 6 -6 -2 -2 -19z"/>
<path d="M6125 370 c-10 -16 5 -50 21 -50 9 0 14 11 14 30 0 30 -21 42 -35 20z"/>
</g>
</svg>
