<?xml version="1.0" standalone="no"?>
<!DOCTYPE svg PUBLIC "-//W3C//DTD SVG 20010904//EN"
 "http://www.w3.org/TR/2001/REC-SVG-20010904/DTD/svg10.dtd">
<svg version="1.0" xmlns="http://www.w3.org/2000/svg"
 width="130.000000pt" height="130.000000pt" viewBox="0 0 130.000000 130.000000"
 preserveAspectRatio="xMidYMid meet">
<metadata>
Created by potrace 1.14, written by Peter Selinger 2001-2017
</metadata>
<g transform="translate(0.000000,130.000000) scale(0.100000,-0.100000)"
fill="#000000" stroke="none">
<path d="M627 1212 c-13 -20 -34 -56 -47 -80 l-24 -42 32 -33 c29 -30 32 -39
32 -92 0 -55 -1 -58 -14 -39 -8 11 -18 32 -21 45 -10 40 -79 132 -121 161 -74
52 -104 32 -104 -70 0 -63 24 -145 59 -202 32 -53 26 -55 -34 -13 -46 32 -55
44 -61 78 -3 22 -12 43 -18 47 -16 11 -174 10 -181 -1 -7 -13 65 -159 82 -165
7 -3 26 0 42 5 25 9 37 7 75 -16 25 -15 48 -30 51 -35 2 -4 -37 -7 -88 -7 -98
1 -151 -14 -194 -55 -31 -29 -29 -42 10 -72 57 -44 107 -59 212 -65 l100 -6
-66 -34 c-66 -34 -67 -34 -107 -18 -46 19 -47 18 -101 -72 -48 -80 -43 -86 64
-86 l90 0 11 35 c8 26 24 43 65 68 29 17 57 32 61 32 4 0 -8 -24 -27 -54 -67
-105 -93 -213 -65 -267 13 -24 31 -24 79 0 53 28 115 95 148 162 15 32 31 58
36 58 4 1 7 -27 7 -62 0 -57 -3 -66 -30 -92 -16 -16 -30 -35 -30 -43 0 -23 90
-154 103 -149 14 4 87 133 87 153 0 7 -13 26 -30 42 -21 21 -30 40 -30 62 0
41 15 31 41 -30 34 -79 142 -168 177 -146 6 3 15 28 22 54 14 61 -6 159 -49
239 -16 29 -27 53 -23 53 3 0 29 -18 59 -40 42 -32 53 -47 53 -68 0 -49 18
-60 107 -68 106 -8 110 0 59 104 l-37 75 -43 -6 c-37 -5 -50 -2 -90 23 -25 16
-46 31 -46 33 0 2 46 3 103 3 91 -1 107 2 146 24 65 37 72 53 37 89 -47 49
-118 74 -226 79 l-94 5 68 34 69 35 38 -18 c30 -13 42 -14 53 -5 19 16 86 129
86 145 0 15 -52 26 -128 26 -48 0 -53 -2 -63 -27 -6 -16 -14 -34 -18 -41 -7
-15 -111 -75 -118 -68 -2 2 12 27 32 55 62 86 93 203 69 265 -13 34 -93 5
-153 -56 -36 -35 -101 -131 -101 -147 0 -5 -4 -13 -10 -16 -6 -4 -10 18 -10
59 0 62 2 67 36 101 l35 36 -27 47 c-15 26 -35 59 -43 74 -24 41 -39 41 -64 0z
m66 -62 l29 -51 -31 -35 c-29 -32 -31 -40 -32 -117 -1 -45 -5 -95 -9 -112 -4
-16 -5 22 -2 86 l5 115 -31 30 -30 29 30 53 c16 28 33 52 36 52 4 0 20 -23 35
-50z m-221 -67 c47 -43 98 -143 124 -246 10 -42 22 -67 30 -67 8 0 14 8 14 17
0 15 1 15 13 -2 18 -24 33 -14 47 33 20 61 79 164 118 205 31 33 98 77 117 77
3 0 5 -24 5 -54 0 -71 -47 -164 -130 -257 -38 -42 -56 -70 -49 -74 6 -4 63 20
127 53 103 52 118 64 128 93 12 33 13 34 67 34 31 0 59 -3 62 -7 5 -5 -19 -49
-52 -97 -2 -2 -21 1 -42 8 -37 11 -45 9 -118 -24 -152 -70 -170 -81 -157 -94
3 -3 59 -4 124 -2 133 3 198 -11 259 -57 l34 -25 -24 -18 c-58 -44 -197 -47
-327 -7 -35 11 -65 18 -65 16 -1 -2 -8 -13 -15 -26 -12 -21 -9 -30 32 -91 25
-37 55 -90 67 -117 24 -54 37 -172 22 -198 -9 -16 -14 -14 -53 16 -54 41 -100
129 -131 248 -26 98 -26 97 -41 82 -8 -8 -15 -8 -24 -1 -15 12 -20 4 -59 -96
-29 -74 -52 -112 -94 -159 -35 -38 -99 -78 -113 -70 -19 12 -3 109 30 176 17
35 56 92 86 128 31 36 56 68 56 73 0 13 -27 7 -71 -17 -171 -92 -174 -94 -185
-128 -11 -32 -13 -33 -73 -36 -33 -2 -61 0 -61 4 0 6 46 90 55 102 2 2 20 -2
42 -8 36 -11 43 -9 156 45 64 32 117 63 117 70 0 10 -28 12 -128 7 -104 -4
-138 -2 -180 12 -52 18 -102 50 -102 67 0 5 19 18 42 31 36 18 59 21 138 20
55 0 116 -7 145 -16 67 -21 78 -20 91 9 11 22 7 31 -28 80 -56 79 -101 180
-106 242 -8 94 13 106 80 46z m-179 -176 c7 -29 21 -47 63 -79 30 -22 54 -42
54 -44 0 -3 -28 13 -62 35 -52 33 -66 38 -87 30 -35 -14 -47 -6 -76 51 l-26
51 63 -3 62 -3 9 -38z m644 -453 c59 -42 66 -45 95 -35 37 13 40 11 67 -51
l20 -48 -58 0 c-62 0 -71 7 -71 54 0 17 -19 38 -67 75 -83 63 -73 67 14 5z
m-287 -104 l1 -115 31 -26 30 -25 -28 -52 c-16 -28 -32 -52 -36 -52 -3 0 -20
23 -37 50 l-31 50 30 27 30 26 0 120 c0 66 2 118 5 116 2 -3 5 -56 5 -119z"/>
</g>
</svg>
